  0
SECTION
  2
HEADER
  9
$EXTMIN
 10
0,823463
 20
-23,000000
  9
$EXTMAX
 10
44,250000
 20
-1,400000
  0
ENDSEC
0
SECTION
2
TABLES
0
TABLE
0
LAYER
2
Background
62
1
0
ENDTAB
0
ENDSEC
0
SECTION
2
ENTITIES
  0
SOLID
 62
41
 10
0,873463
 20
-14,550000
 11
0,873463
 21
-10,700000
 12
4,599269
 22
-14,550000
 13
4,599269
 23
-10,700000
  0
LINE
  8
Background
  6
CONTINUOUS
 10
0,873463
 20
-10,700000
 11
4,599269
 21
-10,700000
 39
0
 62
0
  0
LINE
  8
Background
  6
CONTINUOUS
 10
4,599269
 20
-10,700000
 11
4,599269
 21
-14,550000
 39
0
 62
0
  0
LINE
  8
Background
  6
CONTINUOUS
 10
4,599269
 20
-14,550000
 11
0,873463
 21
-14,550000
 39
0
 62
0
  0
LINE
  8
Background
  6
CONTINUOUS
 10
0,873463
 20
-14,550000
 11
0,873463
 21
-10,700000
 39
0
 62
0
  0
LINE
  8
Background
  6
CONTINUOUS
 10
0,873463
 20
-10,700000
 11
4,599269
 21
-10,700000
 39
0
 62
0
  0
LINE
  8
Background
  6
CONTINUOUS
 10
4,599269
 20
-10,700000
 11
4,599269
 21
-14,550000
 39
0
 62
0
  0
LINE
  8
Background
  6
CONTINUOUS
 10
4,599269
 20
-14,550000
 11
0,873463
 21
-14,550000
 39
0
 62
0
  0
LINE
  8
Background
  6
CONTINUOUS
 10
0,873463
 20
-14,550000
 11
0,873463
 21
-10,700000
 39
0
 62
0
  0
TEXT
  8
Background
  6
CONTINUOUS
 10
2,736370
 20
-12,625000
 40
0,800000
 50
0,000000
 72
1
  7
0
  1
Cliente
 39
1
 62
0
  0
POLYLINE
  6
CONTINUOUS
  8
Background
 41
0,100000
 41
0,100000
 62
0
 66
1
  0
VERTEX
 10
19,160417
 20
-9,950000
  0
VERTEX
 10
26,152083
 20
-9,950000
  0
VERTEX
 10
26,330798
 20
-9,964069
  0
VERTEX
 10
26,504350
 20
-10,005362
  0
VERTEX
 10
26,671860
 20
-10,072511
  0
VERTEX
 10
26,832452
 20
-10,164144
  0
VERTEX
 10
26,985244
 20
-10,278893
  0
VERTEX
 10
27,129360
 20
-10,415387
  0
VERTEX
 10
27,263921
 20
-10,572257
  0
VERTEX
 10
27,388047
 20
-10,748134
  0
VERTEX
 10
27,500861
 20
-10,941647
  0
VERTEX
 10
27,601483
 20
-11,151426
  0
VERTEX
 10
27,689036
 20
-11,376103
  0
VERTEX
 10
27,762640
 20
-11,614307
  0
VERTEX
 10
27,821417
 20
-11,864668
  0
VERTEX
 10
27,864489
 20
-12,125817
  0
VERTEX
 10
27,890976
 20
-12,396384
  0
VERTEX
 10
27,900000
 20
-12,675000
  0
VERTEX
 10
27,890976
 20
-12,953616
  0
VERTEX
 10
27,864489
 20
-13,224183
  0
VERTEX
 10
27,821417
 20
-13,485332
  0
VERTEX
 10
27,762640
 20
-13,735693
  0
VERTEX
 10
27,689036
 20
-13,973897
  0
VERTEX
 10
27,601483
 20
-14,198574
  0
VERTEX
 10
27,500861
 20
-14,408353
  0
VERTEX
 10
27,388047
 20
-14,601866
  0
VERTEX
 10
27,263921
 20
-14,777743
  0
VERTEX
 10
27,129360
 20
-14,934613
  0
VERTEX
 10
26,985244
 20
-15,071107
  0
VERTEX
 10
26,832452
 20
-15,185856
  0
VERTEX
 10
26,671860
 20
-15,277489
  0
VERTEX
 10
26,504350
 20
-15,344638
  0
VERTEX
 10
26,330798
 20
-15,385931
  0
VERTEX
 10
26,152083
 20
-15,400000
  0
VERTEX
 10
19,160417
 20
-15,400000
  0
VERTEX
 10
18,981702
 20
-15,385931
  0
VERTEX
 10
18,808150
 20
-15,344638
  0
VERTEX
 10
18,640640
 20
-15,277489
  0
VERTEX
 10
18,480048
 20
-15,185856
  0
VERTEX
 10
18,327256
 20
-15,071107
  0
VERTEX
 10
18,183140
 20
-14,934613
  0
VERTEX
 10
18,048579
 20
-14,777743
  0
VERTEX
 10
17,924453
 20
-14,601866
  0
VERTEX
 10
17,811639
 20
-14,408353
  0
VERTEX
 10
17,711017
 20
-14,198574
  0
VERTEX
 10
17,623464
 20
-13,973897
  0
VERTEX
 10
17,549860
 20
-13,735693
  0
VERTEX
 10
17,491083
 20
-13,485332
  0
VERTEX
 10
17,448011
 20
-13,224183
  0
VERTEX
 10
17,421524
 20
-12,953616
  0
VERTEX
 10
17,412500
 20
-12,675000
  0
VERTEX
 10
17,421524
 20
-12,396384
  0
VERTEX
 10
17,448011
 20
-12,125817
  0
VERTEX
 10
17,491083
 20
-11,864668
  0
VERTEX
 10
17,549860
 20
-11,614307
  0
VERTEX
 10
17,623464
 20
-11,376103
  0
VERTEX
 10
17,711017
 20
-11,151426
  0
VERTEX
 10
17,811639
 20
-10,941647
  0
VERTEX
 10
17,924453
 20
-10,748134
  0
VERTEX
 10
18,048579
 20
-10,572257
  0
VERTEX
 10
18,183140
 20
-10,415387
  0
VERTEX
 10
18,327256
 20
-10,278893
  0
VERTEX
 10
18,480048
 20
-10,164144
  0
VERTEX
 10
18,640640
 20
-10,072511
  0
VERTEX
 10
18,808150
 20
-10,005362
  0
VERTEX
 10
18,981702
 20
-9,964069
  0
VERTEX
 10
19,160417
 20
-9,950000
  0
SEQEND
  0
TEXT
  8
Background
  6
CONTINUOUS
 10
22,656250
 20
-12,475000
 40
0,800000
 50
0,000000
 72
1
  7
0
  1
Sistema de gestion de
 39
1
 62
0
  0
TEXT
  8
Background
  6
CONTINUOUS
 10
22,656250
 20
-13,275000
 40
0,800000
 50
0,000000
 72
1
  7
0
  1
las bicicletas de Paris
 39
1
 62
0
  0
TEXT
  8
Background
  6
CONTINUOUS
 10
24,750000
 20
-14,050000
 40
0,800000
 50
0,000000
 72
0
  7
0
  1

 39
1
 62
0
  0
TEXT
  8
Background
  6
CONTINUOUS
 10
31,250000
 20
-8,500000
 40
0,800000
 50
0,000000
 72
0
  7
0
  1

 39
1
 62
0
  0
SOLID
 62
41
 10
38,250000
 20
-14,600000
 11
38,250000
 21
-10,800000
 12
44,200000
 22
-14,600000
 13
44,200000
 23
-10,800000
  0
LINE
  8
Background
  6
CONTINUOUS
 10
38,250000
 20
-10,800000
 11
44,200000
 21
-10,800000
 39
0
 62
0
  0
LINE
  8
Background
  6
CONTINUOUS
 10
44,200000
 20
-10,800000
 11
44,200000
 21
-14,600000
 39
0
 62
0
  0
LINE
  8
Background
  6
CONTINUOUS
 10
44,200000
 20
-14,600000
 11
38,250000
 21
-14,600000
 39
0
 62
0
  0
LINE
  8
Background
  6
CONTINUOUS
 10
38,250000
 20
-14,600000
 11
38,250000
 21
-10,800000
 39
0
 62
0
  0
TEXT
  8
Background
  6
CONTINUOUS
 10
41,225000
 20
-12,895000
 40
0,800000
 50
0,000000
 72
1
  7
0
  1

 39
1
 62
0
  0
TEXT
  8
Background
  6
CONTINUOUS
 10
41,225000
 20
-12,700000
 40
0,800000
 50
0,000000
 72
0
  7
0
  1

 39
1
 62
0
  0
TEXT
  8
Background
  6
CONTINUOUS
 10
41,225000
 20
-13,500000
 40
0,800000
 50
0,000000
 72
0
  7
0
  1

 39
1
 62
0
  0
TEXT
  8
Background
  6
CONTINUOUS
 10
41,225000
 20
-12,700000
 40
0,800000
 50
0,000000
 72
1
  7
0
  1
Mantenimiento
 39
1
 62
0
  0
SOLID
 62
41
 10
20,900000
 20
-4,900000
 11
20,900000
 21
-1,450000
 12
24,450000
 22
-4,900000
 13
24,450000
 23
-1,450000
  0
LINE
  8
Background
  6
CONTINUOUS
 10
20,900000
 20
-1,450000
 11
24,450000
 21
-1,450000
 39
0
 62
0
  0
LINE
  8
Background
  6
CONTINUOUS
 10
24,450000
 20
-1,450000
 11
24,450000
 21
-4,900000
 39
0
 62
0
  0
LINE
  8
Background
  6
CONTINUOUS
 10
24,450000
 20
-4,900000
 11
20,900000
 21
-4,900000
 39
0
 62
0
  0
LINE
  8
Background
  6
CONTINUOUS
 10
20,900000
 20
-4,900000
 11
20,900000
 21
-1,450000
 39
0
 62
0
  0
TEXT
  8
Background
  6
CONTINUOUS
 10
22,675000
 20
-3,370000
 40
0,800000
 50
0,000000
 72
1
  7
0
  1
Banco
 39
1
 62
0
  0
SOLID
 62
41
 10
20,900000
 20
-22,950000
 11
20,900000
 21
-19,800000
 12
24,350000
 22
-22,950000
 13
24,350000
 23
-19,800000
  0
LINE
  8
Background
  6
CONTINUOUS
 10
20,900000
 20
-19,800000
 11
24,350000
 21
-19,800000
 39
0
 62
0
  0
LINE
  8
Background
  6
CONTINUOUS
 10
24,350000
 20
-19,800000
 11
24,350000
 21
-22,950000
 39
0
 62
0
  0
LINE
  8
Background
  6
CONTINUOUS
 10
24,350000
 20
-22,950000
 11
20,900000
 21
-22,950000
 39
0
 62
0
  0
LINE
  8
Background
  6
CONTINUOUS
 10
20,900000
 20
-22,950000
 11
20,900000
 21
-19,800000
 39
0
 62
0
  0
TEXT
  8
Background
  6
CONTINUOUS
 10
22,625000
 20
-21,570000
 40
0,800000
 50
0,000000
 72
1
  7
0
  1

 39
1
 62
0
  0
TEXT
  8
Background
  6
CONTINUOUS
 10
22,650000
 20
-22,700000
 40
0,800000
 50
0,000000
 72
0
  7
0
  1

 39
1
 62
0
  0
TEXT
  8
Background
  6
CONTINUOUS
 10
22,625000
 20
-21,375000
 40
0,800000
 50
0,000000
 72
1
  7
0
  1
Estaciones
 39
1
 62
0
  0
TEXT
  8
Background
  6
CONTINUOUS
 10
22,625000
 20
-22,175000
 40
0,800000
 50
0,000000
 72
1
  7
0
  1

 39
1
 62
0
  0
TEXT
  8
Background
  6
CONTINUOUS
 10
5,850000
 20
-10,550000
 40
0,800000
 50
0,000000
 72
0
  7
0
  1
RD1.1, RD1.4, RD1.7, RD1.10, RD1.13
 39
1
 62
0
  0
TEXT
  8
Background
  6
CONTINUOUS
 10
6,050000
 20
-14,300000
 40
0,800000
 50
0,000000
 72
0
  7
0
  1
RD1.3,  RD1.6, RD1.9, RD1.12, RD1.15
 39
1
 62
0
  0
LINE
  8
Background
  6
CONTINUOUS
 10
27,388035
 20
-14,601848
 11
38,026393
 21
-14,600038
 39
0
 62
0
  0
POLYLINE
  6
CONTINUOUS
  8
Background
 41
0,100000
 41
0,100000
 62
0
 66
1
  0
VERTEX
 10
37,638239
 20
-14,850104
  0
VERTEX
 10
38,138197
 20
-14,600019
  0
VERTEX
 10
37,638154
 20
-14,350104
  0
SEQEND
  0
LINE
  8
Background
  6
CONTINUOUS
 10
38,250000
 20
-10,800000
 11
27,611639
 21
-10,749220
 39
0
 62
0
  0
POLYLINE
  6
CONTINUOUS
  8
Background
 41
0,100000
 41
0,100000
 62
0
 66
1
  0
VERTEX
 10
28,001025
 20
-10,501076
  0
VERTEX
 10
27,499837
 20
-10,748686
  0
VERTEX
 10
27,998638
 20
-11,001070
  0
SEQEND
  0
TEXT
  8
Background
  6
CONTINUOUS
 10
32,819018
 20
-10,774076
 40
0,800000
 50
0,000000
 72
1
  7
0
  1
RD2.1, RD2.5, RD2.8, RD2.10
 39
1
 62
0
  0
TEXT
  8
Background
  6
CONTINUOUS
 10
32,819018
 20
-14,600924
 40
0,800000
 50
0,000000
 72
1
  7
0
  1
RD2.2, RD2.6, RD2.11
 39
1
 62
0
  0
TEXT
  8
Background
  6
CONTINUOUS
 10
20,904167
 20
-7,425000
 40
0,800000
 50
0,000000
 72
2
  7
0
  1
RD3.1.1
 39
1
 62
0
  0
TEXT
  8
Background
  6
CONTINUOUS
 10
24,427083
 20
-7,425000
 40
0,800000
 50
0,000000
 72
0
  7
0
  1
RD3.1.2
 39
1
 62
0
  0
LINE
  8
Background
  6
CONTINUOUS
 10
20,900000
 20
-19,800000
 11
20,907910
 21
-15,623606
 39
0
 62
0
  0
POLYLINE
  6
CONTINUOUS
  8
Background
 41
0,100000
 41
0,100000
 62
0
 66
1
  0
VERTEX
 10
21,157174
 20
-16,012276
  0
VERTEX
 10
20,908122
 20
-15,511803
  0
VERTEX
 10
20,657175
 20
-16,011329
  0
SEQEND
  0
LINE
  8
Background
  6
CONTINUOUS
 10
4,599270
 20
-10,700000
 11
17,700859
 21
-10,747344
 39
0
 62
0
  0
POLYLINE
  6
CONTINUOUS
  8
Background
 41
0,100000
 41
0,100000
 62
0
 66
1
  0
VERTEX
 10
17,311762
 20
-10,995940
  0
VERTEX
 10
17,812662
 20
-10,747748
  0
VERTEX
 10
17,313569
 20
-10,495943
  0
SEQEND
  0
LINE
  8
Background
  6
CONTINUOUS
 10
17,924465
 20
-14,601848
 11
4,822875
 21
-14,550870
 39
0
 62
0
  0
POLYLINE
  6
CONTINUOUS
  8
Background
 41
0,100000
 41
0,100000
 62
0
 66
1
  0
VERTEX
 10
5,212041
 20
-14,302382
  0
VERTEX
 10
4,711073
 20
-14,550435
  0
VERTEX
 10
5,210096
 20
-14,802379
  0
SEQEND
  0
LINE
  8
Background
  6
CONTINUOUS
 10
24,450000
 20
-4,900000
 11
24,406196
 21
-9,726402
 39
0
 62
0
  0
POLYLINE
  6
CONTINUOUS
  8
Background
 41
0,100000
 41
0,100000
 62
0
 66
1
  0
VERTEX
 10
24,159729
 20
-9,335953
  0
VERTEX
 10
24,405181
 20
-9,838201
  0
VERTEX
 10
24,659709
 20
-9,340491
  0
SEQEND
  0
LINE
  8
Background
  6
CONTINUOUS
 10
20,908333
 20
-9,950000
 11
20,900369
 21
-5,123606
 39
0
 62
0
  0
POLYLINE
  6
CONTINUOUS
  8
Background
 41
0,100000
 41
0,100000
 62
0
 66
1
  0
VERTEX
 10
21,151009
 20
-5,511390
  0
VERTEX
 10
20,900184
 20
-5,011803
  0
VERTEX
 10
20,651010
 20
-5,512215
  0
SEQEND
  0
TEXT
  8
Background
  6
CONTINUOUS
 10
20,904167
 20
-17,600000
 40
0,800000
 50
0,000000
 72
2
  7
0
  1
RD3.2.1 RD3.3.1 RD3.4.1 RD3.5.1
 39
1
 62
0
0
ENDSEC
0
EOF
